<?xml version="1.0" standalone="no"?>
<!DOCTYPE svg PUBLIC "-//W3C//DTD SVG 20010904//EN"
 "http://www.w3.org/TR/2001/REC-SVG-20010904/DTD/svg10.dtd">
<svg version="1.0" xmlns="http://www.w3.org/2000/svg"
 width="260.000000pt" height="260.000000pt" viewBox="0 0 260.000000 260.000000"
 preserveAspectRatio="xMidYMid meet">
<metadata>
Created by potrace 1.11, written by Peter Selinger 2001-2013
</metadata>
<g transform="translate(0.000000,260.000000) scale(0.100000,-0.100000)"
fill="#000000" stroke="none">
<path d="M1120 2494 c-211 -36 -385 -107 -529 -213 -87 -64 -267 -250 -314
-323 -69 -108 -119 -224 -153 -353 -16 -58 -19 -107 -19 -290 0 -197 2 -228
22 -296 44 -152 106 -272 224 -437 132 -183 432 -370 669 -417 47 -9 101 -20
121 -26 74 -19 279 -7 447 27 144 29 342 125 465 226 197 163 332 356 396 568
13 41 28 86 34 100 15 37 22 386 8 463 -13 75 -74 263 -103 322 -52 102 -141
215 -250 320 -127 122 -236 195 -371 251 -157 64 -221 75 -432 79 -104 2 -201
2 -215 -1z m147 -649 c261 -61 469 -265 528 -519 19 -81 19 -256 0 -331 -38
-144 -130 -286 -246 -376 -38 -30 -69 -57 -69 -61 0 -5 -11 -8 -24 -8 -14 0
-28 -4 -31 -10 -19 -31 -325 -91 -325 -63 0 5 47 22 105 38 132 36 135 38 109
67 -11 13 -31 40 -44 61 -14 25 -27 36 -37 33 -8 -3 -47 -9 -85 -13 -89 -8
-85 6 12 37 38 12 70 25 70 28 0 3 -21 49 -47 102 -25 52 -68 141 -94 198
l-48 103 79 168 c43 93 83 177 89 187 31 57 49 114 38 121 -19 12 -207 17
-218 6 -11 -11 -14 -876 -4 -893 3 -5 3 -16 -2 -22 -4 -7 -8 -36 -8 -65 -1
-58 -15 -80 -53 -86 -27 -4 -27 -4 6 -12 60 -14 35 -28 -42 -23 -59 4 -85 11
-132 38 -89 49 -178 126 -224 191 -49 70 -115 207 -129 269 -16 70 -13 263 5
333 31 121 134 287 211 340 39 27 130 63 138 55 3 -2 -24 -26 -60 -52 -35 -26
-84 -69 -108 -96 -128 -147 -197 -402 -153 -567 33 -123 112 -250 216 -346 56
-52 143 -107 170 -107 6 0 10 31 10 78 l0 77 -58 45 c-151 119 -223 330 -178
518 30 122 123 251 197 273 l39 12 0 64 0 63 66 0 c56 0 67 -3 71 -19 4 -16
18 -19 121 -24 65 -3 126 -8 137 -12 17 -5 24 0 35 27 14 31 17 33 60 30 89
-6 96 -18 58 -97 l-22 -45 22 -23 c29 -31 28 -41 -3 -21 -14 9 -27 15 -28 13
-2 -2 -43 -89 -91 -194 -64 -137 -86 -197 -82 -215 6 -32 145 -318 158 -326
14 -9 77 44 112 94 56 80 56 80 47 47 -16 -57 -54 -120 -98 -160 l-43 -40 32
-62 32 -62 30 16 c48 24 157 142 199 213 63 108 82 185 81 325 0 101 -5 132
-27 200 -60 182 -179 313 -359 394 -102 47 -162 54 -358 47 -189 -7 -201 -1
-68 34 89 23 229 25 315 5z m338 -561 c17 -66 20 -190 5 -199 -6 -4 -10 26
-10 82 0 48 -7 113 -15 143 -17 64 -18 71 -5 49 5 -9 16 -43 25 -75z"/>
<path d="M794 1485 c-118 -117 -162 -288 -116 -442 35 -112 106 -216 175 -254
16 -9 17 11 17 371 0 262 -3 380 -11 380 -6 0 -35 -25 -65 -55z"/>
</g>
</svg>
